# xmcd
#
# Track frame offsets:
#	150
#	21290
#	32970
#	45318
#	59235
#	76595
#	85825
#	102448
#	117793
#	129221
#	140166
#	160918
#	181527
#	197490
#	218704
#	233352
#	250680
#	272125
#	287628
#	297154
#
# Disc length: 4155 seconds
#
# Revision: 0
# Processed by: cddbd v1.5.2PL0 Copyright (c) Steve Scherf et al.
# Submitted via: EZCDAudioConverter 2.1.7.1
#
DISCID=0f103914
DTITLE=Sun Ra - Singles 2/3
DYEAR=1900
DGENRE=
TTITLE0=Sun Ra and His Astro Infinity Arkestra - October
TTITLE1=Sun Ra and His Astro Infinity Arkestra - Adventur In Space
TTITLE2=Cosmic Rays with Sun Ra and Arkestra - Dreaming
TTITLE3=Cosmic Rays with Sun Ra and Arkestra - Daddy's Gonna Tell You No Lie
TTITLE4=Hattie Randolph with Sun Ra and His Astro Infinity Arkestra - Round Midn
TTITLE4=ight
TTITLE5=Hattie Randolph with Sun Ra and His Astro Infinity Arkestra - Back In Yo
TTITLE5=ur Own Back Yard
TTITLE6=Le Sun Ra and His Arkestra - Saturn
TTITLE7=Le Sun Ra and His Arkestra - Velvet
TTITLE8=Yochanan "A Space Age Vocalist" with Sun Ra and His Arkestra - The Sun O
TTITLE8=ne
TTITLE9=Yochanan "A Space Age Vocalist" with Sun Ra and His Arkestra - Message T
TTITLE9=o Earthman
TTITLE10=Yochanan with Sun Ra and His Arkestra - The Sun Man Speaks
TTITLE11=Sun Ra and His Arkestra - Space Loneliness
TTITLE12=Sun Ra and His Arkestra - State Street
TTITLE13=Sun Ra and His Arkestra - The Blue Set
TTITLE14=Sun Ra and His Arkestra - Big City Blues
TTITLE15=Sun Ra and His Arkestra featuring Pat Patrick - A Blue One
TTITLE16=Sun Ra and His Arkestra featuring Pat Patrick - Orbitration In Blue
TTITLE17=Sun Ra and His Arkestra - Hell #1 (a.k.a. Out There A Minute)
TTITLE18=Little Mack with Sun Ra and His Arkestra - Tell Her To Come On Home
TTITLE19=Little Mack with Sun Ra and His Arkestra - I'm Making Believe
EXTD=
EXTT0=
EXTT1=
EXTT2=
EXTT3=
EXTT4=
EXTT5=
EXTT6=
EXTT7=
EXTT8=
EXTT9=
EXTT10=
EXTT11=
EXTT12=
EXTT13=
EXTT14=
EXTT15=
EXTT16=
EXTT17=
EXTT18=
EXTT19=
PLAYORDER=
